<svg xmlns="http://www.w3.org/2000/svg" viewBox="0 0 24 24" role="img" aria-label="OpenAI">
  <path fill="#0084FF" d="M22.282 9.821a5.985 5.985 0 0 0-.516-4.91 6.046 6.046 0 0 0-6.51-2.9A6.065 6.065 0 0 0 4.981 4.18a5.985 5.985 0 0 0-3.998 2.9 6.046 6.046 0 0 0 .743 7.097 5.98 5.98 0 0 0 .51 4.911 6.051 6.051 0 0 0 6.515 2.9 5.985 5.985 0 0 0 4.981 1.11 6.055 6.055 0 0 0 5.977-3.74 5.98 5.98 0 0 0 3.998-2.9 6.046 6.046 0 0 0-.743-7.061Zm-9.128 12.3a4.48 4.48 0 0 1-2.876-1.04l.141-.081 4.779-2.758a.795.795 0 0 0 .392-.681v-6.737l2.02 1.168a.071.071 0 0 1 .038.052v5.583a4.504 4.504 0 0 1-4.494 4.294Zm-9.66-4.135a4.47 4.47 0 0 1-.535-3.014l.142.085 4.783 2.759a.771.771 0 0 0 .78 0l5.843-3.369v2.332a.08.08 0 0 1-.033.062L9.74 19.95a4.504 4.504 0 0 1-6.246-3.964ZM2.34 7.896a4.485 4.485 0 0 1 2.366-1.973V14.2a.766.766 0 0 0 .388.676l5.815 3.355-2.02 1.168a.076.076 0 0 1-.071 0L4.25 16.485a4.504 4.504 0 0 1-1.91-8.589Zm16.597 3.855-5.843-3.365 2.02-1.163a.076.076 0 0 1 .071 0l4.83 2.786a4.494 4.494 0 0 1-.676 8.105v-5.678a.79.79 0 0 0-.402-.681Zm2.01-3.023-2.141-1.235-2.02-1.168a.077.077 0 0 1-.038-.057V6.075a4.504 4.504 0 0 1 7.375-3.453l-.142.085-4.783 2.759a.795.795 0 0 0-.393.681l-.002 6.747ZM8.522 8.306l2.02-1.168 2.02 1.168v2.335l-2.02 1.168-2.02-1.168V8.306Z"/>
</svg>
